<mxfile host="app.diagrams.net" agent="Mozilla/5.0 (Windows NT 10.0; Win64; x64) AppleWebKit/537.36 (KHTML, like Gecko) Chrome/130.0.0.0 Safari/537.36" version="24.8.1">
  <diagram name="第 1 页" id="Js3qqU-Mc6CKpO5Rj7_W">
    <mxGraphModel dx="2074" dy="1098" grid="1" gridSize="10" guides="1" tooltips="1" connect="1" arrows="1" fold="1" page="1" pageScale="1" pageWidth="2339" pageHeight="3300" math="0" shadow="0">
      <root>
        <mxCell id="0" />
        <mxCell id="1" parent="0" />
        <mxCell id="W3EqHEQ5Vzuot-VG3_tw-1" value="" style="rounded=0;whiteSpace=wrap;html=1;" vertex="1" parent="1">
          <mxGeometry x="790" y="380" width="30" height="240" as="geometry" />
        </mxCell>
        <mxCell id="W3EqHEQ5Vzuot-VG3_tw-2" value="" style="rounded=0;whiteSpace=wrap;html=1;" vertex="1" parent="1">
          <mxGeometry x="990" y="380" width="30" height="240" as="geometry" />
        </mxCell>
        <mxCell id="W3EqHEQ5Vzuot-VG3_tw-3" value="" style="endArrow=none;dashed=1;html=1;rounded=0;" edge="1" parent="1">
          <mxGeometry width="50" height="50" relative="1" as="geometry">
            <mxPoint x="804.5" y="710" as="sourcePoint" />
            <mxPoint x="804.5" y="280" as="targetPoint" />
          </mxGeometry>
        </mxCell>
        <mxCell id="W3EqHEQ5Vzuot-VG3_tw-4" value="" style="endArrow=none;dashed=1;html=1;rounded=0;" edge="1" parent="1">
          <mxGeometry width="50" height="50" relative="1" as="geometry">
            <mxPoint x="1004.5" y="710" as="sourcePoint" />
            <mxPoint x="1004.5" y="280" as="targetPoint" />
          </mxGeometry>
        </mxCell>
        <mxCell id="W3EqHEQ5Vzuot-VG3_tw-5" value="" style="rounded=0;whiteSpace=wrap;html=1;" vertex="1" parent="1">
          <mxGeometry x="1170" y="385" width="30" height="240" as="geometry" />
        </mxCell>
        <mxCell id="W3EqHEQ5Vzuot-VG3_tw-6" value="" style="rounded=0;whiteSpace=wrap;html=1;" vertex="1" parent="1">
          <mxGeometry x="1370" y="385" width="30" height="240" as="geometry" />
        </mxCell>
        <mxCell id="W3EqHEQ5Vzuot-VG3_tw-7" value="" style="endArrow=none;dashed=1;html=1;rounded=0;" edge="1" parent="1">
          <mxGeometry width="50" height="50" relative="1" as="geometry">
            <mxPoint x="1184.5" y="715" as="sourcePoint" />
            <mxPoint x="1184.5" y="285" as="targetPoint" />
          </mxGeometry>
        </mxCell>
        <mxCell id="W3EqHEQ5Vzuot-VG3_tw-8" value="" style="endArrow=none;dashed=1;html=1;rounded=0;" edge="1" parent="1">
          <mxGeometry width="50" height="50" relative="1" as="geometry">
            <mxPoint x="1384.5" y="715" as="sourcePoint" />
            <mxPoint x="1384.5" y="285" as="targetPoint" />
          </mxGeometry>
        </mxCell>
        <mxCell id="W3EqHEQ5Vzuot-VG3_tw-9" value="&lt;font style=&quot;font-size: 24px;&quot;&gt;S0&lt;/font&gt;" style="text;html=1;align=center;verticalAlign=middle;whiteSpace=wrap;rounded=0;" vertex="1" parent="1">
          <mxGeometry x="690" y="250" width="60" height="30" as="geometry" />
        </mxCell>
        <mxCell id="W3EqHEQ5Vzuot-VG3_tw-11" value="&lt;font style=&quot;font-size: 24px;&quot;&gt;R meta&lt;/font&gt;&lt;div&gt;&lt;font style=&quot;font-size: 24px;&quot;&gt;R Tag&lt;/font&gt;&lt;/div&gt;" style="text;html=1;align=center;verticalAlign=middle;whiteSpace=wrap;rounded=0;" vertex="1" parent="1">
          <mxGeometry x="640" y="385" width="140" height="35" as="geometry" />
        </mxCell>
        <mxCell id="W3EqHEQ5Vzuot-VG3_tw-12" value="&lt;font style=&quot;font-size: 24px;&quot;&gt;S1&lt;/font&gt;" style="text;html=1;align=center;verticalAlign=middle;whiteSpace=wrap;rounded=0;" vertex="1" parent="1">
          <mxGeometry x="880" y="250" width="60" height="30" as="geometry" />
        </mxCell>
        <mxCell id="W3EqHEQ5Vzuot-VG3_tw-13" value="&lt;span style=&quot;font-size: 24px;&quot;&gt;R Data&lt;/span&gt;" style="text;html=1;align=center;verticalAlign=middle;whiteSpace=wrap;rounded=0;" vertex="1" parent="1">
          <mxGeometry x="840" y="385" width="140" height="35" as="geometry" />
        </mxCell>
        <mxCell id="W3EqHEQ5Vzuot-VG3_tw-14" value="&lt;font style=&quot;font-size: 24px;&quot;&gt;S2&lt;/font&gt;" style="text;html=1;align=center;verticalAlign=middle;whiteSpace=wrap;rounded=0;" vertex="1" parent="1">
          <mxGeometry x="1070" y="250" width="60" height="30" as="geometry" />
        </mxCell>
        <mxCell id="W3EqHEQ5Vzuot-VG3_tw-15" value="&lt;span style=&quot;font-size: 24px;&quot;&gt;R Data&lt;/span&gt;" style="text;html=1;align=center;verticalAlign=middle;whiteSpace=wrap;rounded=0;" vertex="1" parent="1">
          <mxGeometry x="1020" y="385" width="140" height="35" as="geometry" />
        </mxCell>
      </root>
    </mxGraphModel>
  </diagram>
</mxfile>
